<svg width="27" height="36" viewBox="0 0 27 36" fill="none" xmlns="http://www.w3.org/2000/svg">
<g clip-path="url(#clip0_391_170)">
<path fill-rule="evenodd" clip-rule="evenodd" d="M13.0658 32.7716C13.7179 32.7716 25.369 20.323 25.369 13.5282C25.369 6.73339 19.8606 1.2251 13.0658 1.2251C6.27098 1.2251 0.762695 6.73339 0.762695 13.5282C0.762695 20.323 12.4138 32.7716 13.0658 32.7716ZM13.0658 19.6818C16.5108 19.6818 19.3036 16.8891 19.3036 13.4441C19.3036 9.9991 16.5108 7.2064 13.0658 7.2064C9.62086 7.2064 6.82816 9.9991 6.82816 13.4441C6.82816 16.8891 9.62086 19.6818 13.0658 19.6818Z" fill="#1DAEEF"/>
<path fill-rule="evenodd" clip-rule="evenodd" d="M0.762695 13.5282C0.762695 20.323 12.4138 32.7716 13.0658 32.7716V19.6818C9.62085 19.6817 6.82816 16.8891 6.82816 13.4441C6.82816 9.99912 9.62085 7.20641 13.0658 7.2064V1.2251C6.27098 1.2251 0.762695 6.73339 0.762695 13.5282Z" fill="#3EC3FF"/>
</g>
<defs>
<clipPath id="clip0_391_170">
<rect width="26.4" height="33" fill="white" transform="translate(0.588379 0.902832)"/>
</clipPath>
</defs>
</svg>
