<svg width="110" height="54" viewBox="0 0 110 54" fill="none" xmlns="http://www.w3.org/2000/svg">
<path d="M49.4836 39.491C48.4798 43.4316 45.8829 47.0452 42.4053 49.6065C38.9147 52.1645 34.4592 53.5925 29.939 53.4953C25.4123 53.4274 20.8661 51.8051 17.2266 48.9881C15.3906 47.5925 13.804 45.8763 12.4732 43.9789C11.165 42.0652 10.1483 39.9443 9.47803 37.7101C9.13804 36.5962 8.91785 35.4467 8.76567 34.2907C8.61024 33.1348 8.55843 31.9691 8.58757 30.8099C8.61995 29.6474 8.76243 28.4915 8.97614 27.3517C9.18984 26.2119 9.49422 25.0883 9.89573 24.0004C11.4888 19.6517 14.4516 15.8794 18.2109 13.3765C20.0825 12.1136 22.1516 11.1714 24.2919 10.5691C26.4355 9.97654 28.6567 9.73046 30.8262 9.85998C31.095 9.87617 31.3702 9.88913 31.6357 9.91827L32.4193 10.0122C32.9406 10.0834 33.4652 10.1676 33.9865 10.268C35.0291 10.472 36.0685 10.7472 37.0691 11.126C38.0631 11.5211 39.0151 12.0068 39.8959 12.5734C40.7831 13.1304 41.5699 13.8136 42.3017 14.5162L42.3341 14.5421C42.5219 14.7753 42.7064 15.0149 42.891 15.248L42.9104 15.2739C42.9752 15.3581 42.9622 15.4779 42.8781 15.5459C42.8036 15.6042 42.7 15.601 42.632 15.5394L41.9649 14.9566L41.9811 14.9695C40.3816 13.8492 38.5974 13.0073 36.7064 12.5475C34.8219 12.0845 32.85 11.9679 30.9039 12.0359C27.0183 12.1687 23.1975 13.5481 20.1019 15.8892C17.0032 18.227 14.6232 21.5071 13.396 25.1822C12.1559 28.8541 12.0943 32.9016 13.2017 36.6059C14.28 40.3199 16.5272 43.6874 19.5385 46.1289C22.5369 48.5833 26.293 50.1116 30.1656 50.3966C34.0383 50.7074 37.9887 49.7684 41.34 47.7997C44.7075 45.8537 47.4728 42.865 49.1306 39.3226C49.176 39.2255 49.2893 39.1834 49.3865 39.2287C49.4706 39.2676 49.5127 39.3615 49.4901 39.4521L49.4836 39.491Z" fill="#041237"/>
<path d="M12.8745 15.915C13.6128 14.5421 14.6393 13.3344 15.8147 12.295C16.1125 12.0392 16.4072 11.7801 16.7245 11.547C17.0451 11.3203 17.3592 11.0807 17.6862 10.8605C18.0197 10.6501 18.3565 10.4461 18.6997 10.255C19.0494 10.0737 19.3926 9.87616 19.7488 9.70779C20.1115 9.5556 20.4709 9.39047 20.84 9.25124C21.2124 9.12172 21.5751 8.96305 21.9539 8.8562C22.7116 8.64249 23.4725 8.43849 24.2529 8.33163C25.8039 8.09202 27.3873 8.0726 28.9156 8.37697L28.9253 8.38021C28.9512 8.38669 28.9674 8.40935 28.9642 8.43525C28.961 8.45792 28.9415 8.47411 28.9189 8.47411C25.8913 8.56153 22.8897 9.28361 20.1665 10.5853C17.4272 11.8578 14.9533 13.7067 12.9555 15.9798C12.9393 15.9992 12.9069 16.0025 12.8875 15.983C12.8713 15.9669 12.8681 15.9442 12.8778 15.9248L12.8745 15.915Z" fill="#041237"/>
<path d="M5.52747 24.4051C5.54366 22.9156 5.86099 21.4488 6.3564 20.0468C6.47945 19.6938 6.61868 19.3473 6.76439 19.0074L7.23714 17.9939C7.40552 17.6603 7.60303 17.343 7.78436 17.016L8.38016 16.0672L9.04719 15.1671C9.28032 14.8757 9.51346 14.5842 9.75955 14.3025L10.5302 13.493C10.7925 13.2275 11.0742 12.9814 11.3494 12.7353C12.473 11.7607 13.7229 10.9285 15.099 10.3651L15.1087 10.3619C15.1346 10.3522 15.1605 10.3651 15.1703 10.3878C15.18 10.4072 15.1703 10.4331 15.1541 10.4461C12.8162 12.1331 10.7828 14.2345 9.17671 16.6177C7.54151 18.9847 6.32726 21.6431 5.6149 24.4375C5.60842 24.4634 5.58252 24.4796 5.55661 24.4731C5.53395 24.4666 5.521 24.4472 5.521 24.4245L5.52747 24.4051Z" fill="#041237"/>
<path d="M21.9862 6.894C23.3721 5.85783 24.9878 5.21994 26.6554 4.83138C28.3262 4.44929 30.0618 4.35215 31.7747 4.50758C33.4876 4.67272 35.1778 5.09043 36.7483 5.78012C38.3155 6.47306 39.779 7.4056 40.948 8.6749L40.9641 8.69433C40.9933 8.72671 40.99 8.77528 40.9609 8.80442C40.935 8.82708 40.8994 8.83032 40.8702 8.81736C40.1482 8.44823 39.4131 8.11472 38.6587 7.81682C37.9107 7.50921 37.1465 7.24369 36.3726 7.01703C34.8249 6.55724 33.2285 6.26258 31.6225 6.12011C30.0164 5.96792 28.3942 5.95821 26.7849 6.12335C25.9819 6.20106 25.1821 6.32086 24.3888 6.47952C23.5955 6.62847 22.8086 6.82275 22.0315 7.04941C21.9894 7.06237 21.9473 7.03647 21.9344 6.99437C21.9247 6.96199 21.9376 6.92961 21.9635 6.91018L21.9862 6.894Z" fill="#041237"/>
<path d="M9.26443 11.7348C10.0383 10.0543 11.2105 8.61982 12.551 7.36672C13.9045 6.12656 15.4555 5.09364 17.1231 4.31328C18.7906 3.52968 20.5748 2.9954 22.3945 2.74608C24.2143 2.51294 26.0664 2.52913 27.8538 3.00512L27.8765 3.01159C27.9186 3.02131 27.9445 3.06665 27.9315 3.10874C27.9218 3.14112 27.8959 3.16378 27.8635 3.16702L26.5619 3.29007L25.2667 3.47463C24.836 3.54586 24.4086 3.63005 23.9812 3.70776C23.5537 3.79519 23.1328 3.90528 22.7086 4.00242C21.0216 4.43632 19.38 5.03212 17.8095 5.7801C16.2326 6.51188 14.7237 7.39586 13.3152 8.41583C12.9655 8.67487 12.6222 8.94362 12.2758 9.2059L11.2752 10.0445L10.3071 10.922L9.38099 11.8449C9.34861 11.8773 9.30004 11.8773 9.26766 11.8449C9.245 11.8222 9.23852 11.7866 9.25147 11.7575L9.26443 11.7348Z" fill="#00FF94"/>
<path d="M0.0293725 23.3916C-0.103386 21.465 0.223653 19.5546 0.81297 17.7316C1.38933 15.8989 2.26683 14.1633 3.3548 12.5767C4.44925 10.9933 5.7574 9.55238 7.25984 8.36079C8.74932 7.15625 10.4137 6.16542 12.2561 5.59229L12.2755 5.58582C12.3176 5.57286 12.3629 5.59553 12.3759 5.63763C12.3856 5.67001 12.3727 5.70562 12.3467 5.72505L11.2458 6.54426L10.1838 7.41205L9.15407 8.31869L8.16648 9.27067C6.88099 10.5691 5.71531 11.9841 4.68563 13.493C3.64299 14.9922 2.73958 16.5886 1.98837 18.2561L1.4541 19.519L0.978108 20.8044L0.550691 22.1094L0.184797 23.4305C0.171845 23.4726 0.129751 23.4985 0.0876566 23.4855C0.0552765 23.4758 0.0326105 23.4467 0.0293725 23.4143V23.3916Z" fill="#0059FF"/>
<path d="M31.9205 3.91824C32.3122 3.91824 32.6297 3.60076 32.6297 3.20912C32.6297 2.81748 32.3122 2.5 31.9205 2.5C31.5289 2.5 31.2114 2.81748 31.2114 3.20912C31.2114 3.60076 31.5289 3.91824 31.9205 3.91824Z" fill="#041237" stroke="#041237" stroke-width="3.6548" stroke-miterlimit="10" stroke-linecap="round"/>
<path d="M15.8239 4.15459C16.2155 4.15459 16.533 3.8371 16.533 3.44546C16.533 3.05383 16.2155 2.73634 15.8239 2.73634C15.4322 2.73634 15.1147 3.05383 15.1147 3.44546C15.1147 3.8371 15.4322 4.15459 15.8239 4.15459Z" fill="#00FF94" stroke="#00FF94" stroke-width="3.6548" stroke-miterlimit="10" stroke-linecap="round"/>
<path d="M2.57118 12.201C2.96282 12.201 3.28031 11.8836 3.28031 11.4919C3.28031 11.1003 2.96282 10.7828 2.57118 10.7828C2.17955 10.7828 1.86206 11.1003 1.86206 11.4919C1.86206 11.8836 2.17955 12.201 2.57118 12.201Z" fill="#0059FF" stroke="#0059FF" stroke-width="3.6548" stroke-miterlimit="10" stroke-linecap="round"/>
<path d="M2.72645 35.7446C2.03675 34.0964 1.66438 32.322 1.52515 30.5314C1.496 30.0846 1.46362 29.6345 1.46362 29.1844C1.47334 28.7343 1.4701 28.2842 1.48629 27.8341C1.51867 27.3841 1.55753 26.934 1.60933 26.4871C1.67409 26.0403 1.72266 25.5902 1.80361 25.1466C1.90399 24.7062 1.98818 24.2626 2.09827 23.8255C2.22132 23.3916 2.31846 22.9512 2.46417 22.5238C2.61635 22.0996 2.75559 21.6722 2.92073 21.2513C3.0891 20.8336 3.26072 20.4191 3.45823 20.0144C4.22564 18.3889 5.20676 16.867 6.4372 15.5718L6.44368 15.5653C6.4631 15.5459 6.49225 15.5459 6.51167 15.5621C6.52786 15.5783 6.5311 15.6042 6.51815 15.6236C4.6563 18.5799 3.37081 21.8892 2.75883 25.3247C2.11446 28.7505 2.13713 32.3026 2.82035 35.7284C2.82682 35.7543 2.8074 35.7802 2.78149 35.7867C2.75883 35.7899 2.73616 35.7802 2.72645 35.7575V35.7446Z" fill="#041237"/>
<path d="M26.983 22.2507V23.6207H25.123V29.2707H23.413V23.6207H21.553V22.2507H26.983ZM33.1012 26.3907C33.1012 26.5507 33.0912 26.7174 33.0712 26.8907H29.2012C29.2279 27.2374 29.3379 27.5041 29.5312 27.6907C29.7312 27.8707 29.9745 27.9607 30.2612 27.9607C30.6879 27.9607 30.9845 27.7807 31.1512 27.4207H32.9712C32.8779 27.7874 32.7079 28.1174 32.4612 28.4107C32.2212 28.7041 31.9179 28.9341 31.5512 29.1007C31.1845 29.2674 30.7745 29.3507 30.3212 29.3507C29.7745 29.3507 29.2879 29.2341 28.8612 29.0007C28.4345 28.7674 28.1012 28.4341 27.8612 28.0007C27.6212 27.5674 27.5012 27.0607 27.5012 26.4807C27.5012 25.9007 27.6179 25.3941 27.8512 24.9607C28.0912 24.5274 28.4245 24.1941 28.8512 23.9607C29.2779 23.7274 29.7679 23.6107 30.3212 23.6107C30.8612 23.6107 31.3412 23.7241 31.7612 23.9507C32.1812 24.1774 32.5079 24.5007 32.7412 24.9207C32.9812 25.3407 33.1012 25.8307 33.1012 26.3907ZM31.3512 25.9407C31.3512 25.6474 31.2512 25.4141 31.0512 25.2407C30.8512 25.0674 30.6012 24.9807 30.3012 24.9807C30.0145 24.9807 29.7712 25.0641 29.5712 25.2307C29.3779 25.3974 29.2579 25.6341 29.2112 25.9407H31.3512ZM33.6633 26.4807C33.6633 25.9007 33.78 25.3941 34.0133 24.9607C34.2533 24.5274 34.5833 24.1941 35.0033 23.9607C35.43 23.7274 35.9166 23.6107 36.4633 23.6107C37.1633 23.6107 37.7466 23.7941 38.2133 24.1607C38.6866 24.5274 38.9966 25.0441 39.1433 25.7107H37.3233C37.17 25.2841 36.8733 25.0707 36.4333 25.0707C36.12 25.0707 35.87 25.1941 35.6833 25.4407C35.4966 25.6807 35.4033 26.0274 35.4033 26.4807C35.4033 26.9341 35.4966 27.2841 35.6833 27.5307C35.87 27.7707 36.12 27.8907 36.4333 27.8907C36.8733 27.8907 37.17 27.6774 37.3233 27.2507H39.1433C38.9966 27.9041 38.6866 28.4174 38.2133 28.7907C37.74 29.1641 37.1566 29.3507 36.4633 29.3507C35.9166 29.3507 35.43 29.2341 35.0033 29.0007C34.5833 28.7674 34.2533 28.4341 34.0133 28.0007C33.78 27.5674 33.6633 27.0607 33.6633 26.4807ZM43.488 23.6307C44.128 23.6307 44.6413 23.8441 45.028 24.2707C45.4147 24.6907 45.608 25.2707 45.608 26.0107V29.2707H43.908V26.2407C43.908 25.8674 43.8113 25.5774 43.618 25.3707C43.4247 25.1641 43.1647 25.0607 42.838 25.0607C42.5113 25.0607 42.2513 25.1641 42.058 25.3707C41.8647 25.5774 41.768 25.8674 41.768 26.2407V29.2707H40.058V21.8707H41.768V24.4407C41.9413 24.1941 42.178 23.9974 42.478 23.8507C42.778 23.7041 43.1147 23.6307 43.488 23.6307ZM53.3154 22.2507V27.0307C53.3154 27.7707 53.1054 28.3407 52.6854 28.7407C52.2721 29.1407 51.7121 29.3407 51.0054 29.3407C50.2654 29.3407 49.6721 29.1307 49.2254 28.7107C48.7787 28.2907 48.5554 27.6941 48.5554 26.9207H50.2554C50.2554 27.2141 50.3154 27.4374 50.4354 27.5907C50.5554 27.7374 50.7287 27.8107 50.9554 27.8107C51.1621 27.8107 51.3221 27.7441 51.4354 27.6107C51.5487 27.4774 51.6054 27.2841 51.6054 27.0307V22.2507H53.3154ZM57.2367 29.3507C56.69 29.3507 56.1967 29.2341 55.7567 29.0007C55.3233 28.7674 54.98 28.4341 54.7267 28.0007C54.48 27.5674 54.3567 27.0607 54.3567 26.4807C54.3567 25.9074 54.4833 25.4041 54.7367 24.9707C54.99 24.5307 55.3367 24.1941 55.7767 23.9607C56.2167 23.7274 56.71 23.6107 57.2567 23.6107C57.8033 23.6107 58.2967 23.7274 58.7367 23.9607C59.1767 24.1941 59.5233 24.5307 59.7767 24.9707C60.03 25.4041 60.1567 25.9074 60.1567 26.4807C60.1567 27.0541 60.0267 27.5607 59.7667 28.0007C59.5133 28.4341 59.1633 28.7674 58.7167 29.0007C58.2767 29.2341 57.7833 29.3507 57.2367 29.3507ZM57.2367 27.8707C57.5633 27.8707 57.84 27.7507 58.0667 27.5107C58.3 27.2707 58.4167 26.9274 58.4167 26.4807C58.4167 26.0341 58.3033 25.6907 58.0767 25.4507C57.8567 25.2107 57.5833 25.0907 57.2567 25.0907C56.9233 25.0907 56.6467 25.2107 56.4267 25.4507C56.2067 25.6841 56.0967 26.0274 56.0967 26.4807C56.0967 26.9274 56.2033 27.2707 56.4167 27.5107C56.6367 27.7507 56.91 27.8707 57.2367 27.8707ZM62.7738 24.4807C62.9338 24.2207 63.1638 24.0107 63.4638 23.8507C63.7638 23.6907 64.1072 23.6107 64.4938 23.6107C64.9538 23.6107 65.3705 23.7274 65.7438 23.9607C66.1172 24.1941 66.4105 24.5274 66.6238 24.9607C66.8438 25.3941 66.9538 25.8974 66.9538 26.4707C66.9538 27.0441 66.8438 27.5507 66.6238 27.9907C66.4105 28.4241 66.1172 28.7607 65.7438 29.0007C65.3705 29.2341 64.9538 29.3507 64.4938 29.3507C64.1005 29.3507 63.7572 29.2741 63.4638 29.1207C63.1705 28.9607 62.9405 28.7507 62.7738 28.4907V29.2707H61.0638V21.8707H62.7738V24.4807ZM65.2138 26.4707C65.2138 26.0441 65.0938 25.7107 64.8538 25.4707C64.6205 25.2241 64.3305 25.1007 63.9838 25.1007C63.6438 25.1007 63.3538 25.2241 63.1138 25.4707C62.8805 25.7174 62.7638 26.0541 62.7638 26.4807C62.7638 26.9074 62.8805 27.2441 63.1138 27.4907C63.3538 27.7374 63.6438 27.8607 63.9838 27.8607C64.3238 27.8607 64.6138 27.7374 64.8538 27.4907C65.0938 27.2374 65.2138 26.8974 65.2138 26.4707ZM74.5401 22.2507V23.6207H71.6801V25.1007H73.8201V26.4307H71.6801V29.2707H69.9701V22.2507H74.5401ZM75.0988 26.4707C75.0988 25.8974 75.2055 25.3941 75.4188 24.9607C75.6388 24.5274 75.9355 24.1941 76.3088 23.9607C76.6822 23.7274 77.0988 23.6107 77.5588 23.6107C77.9522 23.6107 78.2955 23.6907 78.5888 23.8507C78.8888 24.0107 79.1188 24.2207 79.2788 24.4807V23.6907H80.9888V29.2707H79.2788V28.4807C79.1122 28.7407 78.8788 28.9507 78.5788 29.1107C78.2855 29.2707 77.9422 29.3507 77.5488 29.3507C77.0955 29.3507 76.6822 29.2341 76.3088 29.0007C75.9355 28.7607 75.6388 28.4241 75.4188 27.9907C75.2055 27.5507 75.0988 27.0441 75.0988 26.4707ZM79.2788 26.4807C79.2788 26.0541 79.1588 25.7174 78.9188 25.4707C78.6855 25.2241 78.3988 25.1007 78.0588 25.1007C77.7188 25.1007 77.4288 25.2241 77.1888 25.4707C76.9555 25.7107 76.8388 26.0441 76.8388 26.4707C76.8388 26.8974 76.9555 27.2374 77.1888 27.4907C77.4288 27.7374 77.7188 27.8607 78.0588 27.8607C78.3988 27.8607 78.6855 27.7374 78.9188 27.4907C79.1588 27.2441 79.2788 26.9074 79.2788 26.4807ZM83.086 23.1107C82.786 23.1107 82.5393 23.0241 82.346 22.8507C82.1593 22.6707 82.066 22.4507 82.066 22.1907C82.066 21.9241 82.1593 21.7041 82.346 21.5307C82.5393 21.3507 82.786 21.2607 83.086 21.2607C83.3793 21.2607 83.6193 21.3507 83.806 21.5307C83.9993 21.7041 84.096 21.9241 84.096 22.1907C84.096 22.4507 83.9993 22.6707 83.806 22.8507C83.6193 23.0241 83.3793 23.1107 83.086 23.1107ZM83.936 23.6907V29.2707H82.226V23.6907H83.936ZM86.8852 24.6207C87.0852 24.3141 87.3352 24.0741 87.6352 23.9007C87.9352 23.7207 88.2685 23.6307 88.6352 23.6307V25.4407H88.1652C87.7385 25.4407 87.4185 25.5341 87.2052 25.7207C86.9918 25.9007 86.8852 26.2207 86.8852 26.6807V29.2707H85.1752V23.6907H86.8852V24.6207Z" fill="#041237"/>
<path d="M24.298 35.6047C24.298 35.808 24.2513 35.9947 24.158 36.1647C24.0647 36.3313 23.9213 36.4663 23.728 36.5697C23.5347 36.673 23.2947 36.7247 23.008 36.7247H22.478V37.9847H21.623V34.4747H23.008C23.288 34.4747 23.5247 34.523 23.718 34.6197C23.9113 34.7163 24.0563 34.8497 24.153 35.0197C24.2497 35.1897 24.298 35.3847 24.298 35.6047ZM22.943 36.0447C23.1063 36.0447 23.228 36.0063 23.308 35.9297C23.388 35.853 23.428 35.7447 23.428 35.6047C23.428 35.4647 23.388 35.3563 23.308 35.2797C23.228 35.203 23.1063 35.1647 22.943 35.1647H22.478V36.0447H22.943ZM26.4031 38.0197C26.0731 38.0197 25.7698 37.943 25.4931 37.7897C25.2198 37.6363 25.0014 37.423 24.8381 37.1497C24.6781 36.873 24.5981 36.563 24.5981 36.2197C24.5981 35.8763 24.6781 35.568 24.8381 35.2947C25.0014 35.0213 25.2198 34.808 25.4931 34.6547C25.7698 34.5013 26.0731 34.4247 26.4031 34.4247C26.7331 34.4247 27.0348 34.5013 27.3081 34.6547C27.5848 34.808 27.8014 35.0213 27.9581 35.2947C28.1181 35.568 28.1981 35.8763 28.1981 36.2197C28.1981 36.563 28.1181 36.873 27.9581 37.1497C27.7981 37.423 27.5814 37.6363 27.3081 37.7897C27.0348 37.943 26.7331 38.0197 26.4031 38.0197ZM26.4031 37.2397C26.6831 37.2397 26.9064 37.1463 27.0731 36.9597C27.2431 36.773 27.3281 36.5263 27.3281 36.2197C27.3281 35.9097 27.2431 35.663 27.0731 35.4797C26.9064 35.293 26.6831 35.1997 26.4031 35.1997C26.1198 35.1997 25.8931 35.2913 25.7231 35.4747C25.5564 35.658 25.4731 35.9063 25.4731 36.2197C25.4731 36.5297 25.5564 36.778 25.7231 36.9647C25.8931 37.148 26.1198 37.2397 26.4031 37.2397ZM33.5038 34.4747L32.5888 37.9847H31.5538L30.9938 35.6747L30.4138 37.9847H29.3788L28.4888 34.4747H29.4038L29.9088 37.0297L30.5338 34.4747H31.4738L32.0738 37.0297L32.5838 34.4747H33.5038ZM34.7876 35.1597V35.8697H35.9326V36.5297H34.7876V37.2997H36.0826V37.9847H33.9326V34.4747H36.0826V35.1597H34.7876ZM38.4276 37.9847L37.6976 36.6597H37.4926V37.9847H36.6376V34.4747H38.0726C38.3493 34.4747 38.5843 34.523 38.7776 34.6197C38.9743 34.7163 39.121 34.8497 39.2176 35.0197C39.3143 35.1863 39.3626 35.373 39.3626 35.5797C39.3626 35.813 39.296 36.0213 39.1626 36.2047C39.0326 36.388 38.8393 36.518 38.5826 36.5947L39.3926 37.9847H38.4276ZM37.4926 36.0547H38.0226C38.1793 36.0547 38.296 36.0163 38.3726 35.9397C38.4526 35.863 38.4926 35.7547 38.4926 35.6147C38.4926 35.4813 38.4526 35.3763 38.3726 35.2997C38.296 35.223 38.1793 35.1847 38.0226 35.1847H37.4926V36.0547ZM40.7544 35.1597V35.8697H41.8994V36.5297H40.7544V37.2997H42.0494V37.9847H39.8994V34.4747H42.0494V35.1597H40.7544ZM43.9194 34.4747C44.2894 34.4747 44.6128 34.548 44.8894 34.6947C45.1661 34.8413 45.3794 35.048 45.5294 35.3147C45.6828 35.578 45.7594 35.883 45.7594 36.2297C45.7594 36.573 45.6828 36.878 45.5294 37.1447C45.3794 37.4113 45.1644 37.618 44.8844 37.7647C44.6078 37.9113 44.2861 37.9847 43.9194 37.9847H42.6044V34.4747H43.9194ZM43.8644 37.2447C44.1878 37.2447 44.4394 37.1563 44.6194 36.9797C44.7994 36.803 44.8894 36.553 44.8894 36.2297C44.8894 35.9063 44.7994 35.6547 44.6194 35.4747C44.4394 35.2947 44.1878 35.2047 43.8644 35.2047H43.4594V37.2447H43.8644ZM49.4218 36.1847C49.6251 36.228 49.7885 36.3297 49.9118 36.4897C50.0351 36.6463 50.0968 36.8263 50.0968 37.0297C50.0968 37.323 49.9935 37.5563 49.7868 37.7297C49.5835 37.8997 49.2985 37.9847 48.9318 37.9847H47.2968V34.4747H48.8768C49.2335 34.4747 49.5118 34.5563 49.7118 34.7197C49.9151 34.883 50.0168 35.1047 50.0168 35.3847C50.0168 35.5913 49.9618 35.763 49.8518 35.8997C49.7451 36.0363 49.6018 36.1313 49.4218 36.1847ZM48.1518 35.8947H48.7118C48.8518 35.8947 48.9585 35.8647 49.0318 35.8047C49.1085 35.7413 49.1468 35.6497 49.1468 35.5297C49.1468 35.4097 49.1085 35.318 49.0318 35.2547C48.9585 35.1913 48.8518 35.1597 48.7118 35.1597H48.1518V35.8947ZM48.7818 37.2947C48.9251 37.2947 49.0351 37.263 49.1118 37.1997C49.1918 37.133 49.2318 37.038 49.2318 36.9147C49.2318 36.7913 49.1901 36.6947 49.1068 36.6247C49.0268 36.5547 48.9151 36.5197 48.7718 36.5197H48.1518V37.2947H48.7818ZM53.6027 34.4747L52.3877 36.8247V37.9847H51.5327V36.8247L50.3177 34.4747H51.2877L51.9677 35.9447L52.6427 34.4747H53.6027ZM54.8618 36.2247C54.8618 35.878 54.9368 35.5697 55.0868 35.2997C55.2368 35.0263 55.4451 34.8147 55.7118 34.6647C55.9818 34.5113 56.2868 34.4347 56.6268 34.4347C57.0434 34.4347 57.4001 34.5447 57.6968 34.7647C57.9934 34.9847 58.1918 35.2847 58.2918 35.6647H57.3518C57.2818 35.518 57.1818 35.4063 57.0518 35.3297C56.9251 35.253 56.7801 35.2147 56.6168 35.2147C56.3534 35.2147 56.1401 35.3063 55.9768 35.4897C55.8134 35.673 55.7318 35.918 55.7318 36.2247C55.7318 36.5313 55.8134 36.7763 55.9768 36.9597C56.1401 37.143 56.3534 37.2347 56.6168 37.2347C56.7801 37.2347 56.9251 37.1963 57.0518 37.1197C57.1818 37.043 57.2818 36.9313 57.3518 36.7847H58.2918C58.1918 37.1647 57.9934 37.4647 57.6968 37.6847C57.4001 37.9013 57.0434 38.0097 56.6268 38.0097C56.2868 38.0097 55.9818 37.9347 55.7118 37.7847C55.4451 37.6313 55.2368 37.4197 55.0868 37.1497C54.9368 36.8797 54.8618 36.5713 54.8618 36.2247ZM60.6054 37.9847L59.8754 36.6597H59.6704V37.9847H58.8154V34.4747H60.2504C60.527 34.4747 60.762 34.523 60.9554 34.6197C61.152 34.7163 61.2987 34.8497 61.3954 35.0197C61.492 35.1863 61.5404 35.373 61.5404 35.5797C61.5404 35.813 61.4737 36.0213 61.3404 36.2047C61.2104 36.388 61.017 36.518 60.7604 36.5947L61.5704 37.9847H60.6054ZM59.6704 36.0547H60.2004C60.357 36.0547 60.4737 36.0163 60.5504 35.9397C60.6304 35.863 60.6704 35.7547 60.6704 35.6147C60.6704 35.4813 60.6304 35.3763 60.5504 35.2997C60.4737 35.223 60.357 35.1847 60.2004 35.1847H59.6704V36.0547ZM62.9321 35.1597V35.8697H64.0771V36.5297H62.9321V37.2997H64.2271V37.9847H62.0771V34.4747H64.2271V35.1597H62.9321ZM66.9672 37.3647H65.6572L65.4472 37.9847H64.5522L65.8222 34.4747H66.8122L68.0822 37.9847H67.1772L66.9672 37.3647ZM66.7472 36.7047L66.3122 35.4197L65.8822 36.7047H66.7472ZM70.9937 34.4747V35.1597H70.0637V37.9847H69.2087V35.1597H68.2787V34.4747H70.9937ZM72.2778 34.4747V37.9847H71.4228V34.4747H72.2778ZM76.1924 34.4747L74.9474 37.9847H73.8774L72.6324 34.4747H73.5424L74.4124 37.1247L75.2874 34.4747H76.1924ZM77.4047 35.1597V35.8697H78.5497V36.5297H77.4047V37.2997H78.6997V37.9847H76.5497V34.4747H78.6997V35.1597H77.4047ZM83.3544 34.4747V37.9847H82.4994V36.5397H81.1694V37.9847H80.3144V34.4747H81.1694V35.8497H82.4994V34.4747H83.3544ZM84.8116 34.4747V36.5747C84.8116 36.7847 84.8633 36.9463 84.9666 37.0597C85.07 37.173 85.2216 37.2297 85.4216 37.2297C85.6216 37.2297 85.775 37.173 85.8816 37.0597C85.9883 36.9463 86.0416 36.7847 86.0416 36.5747V34.4747H86.8966V36.5697C86.8966 36.883 86.83 37.148 86.6966 37.3647C86.5633 37.5813 86.3833 37.7447 86.1566 37.8547C85.9333 37.9647 85.6833 38.0197 85.4066 38.0197C85.13 38.0197 84.8816 37.9663 84.6616 37.8597C84.445 37.7497 84.2733 37.5863 84.1466 37.3697C84.02 37.1497 83.9566 36.883 83.9566 36.5697V34.4747H84.8116ZM89.622 36.1847C89.8253 36.228 89.9887 36.3297 90.112 36.4897C90.2353 36.6463 90.297 36.8263 90.297 37.0297C90.297 37.323 90.1937 37.5563 89.987 37.7297C89.7837 37.8997 89.4987 37.9847 89.132 37.9847H87.497V34.4747H89.077C89.4337 34.4747 89.712 34.5563 89.912 34.7197C90.1153 34.883 90.217 35.1047 90.217 35.3847C90.217 35.5913 90.162 35.763 90.052 35.8997C89.9453 36.0363 89.802 36.1313 89.622 36.1847ZM88.352 35.8947H88.912C89.052 35.8947 89.1587 35.8647 89.232 35.8047C89.3087 35.7413 89.347 35.6497 89.347 35.5297C89.347 35.4097 89.3087 35.318 89.232 35.2547C89.1587 35.1913 89.052 35.1597 88.912 35.1597H88.352V35.8947ZM88.982 37.2947C89.1253 37.2947 89.2353 37.263 89.312 37.1997C89.392 37.133 89.432 37.038 89.432 36.9147C89.432 36.7913 89.3903 36.6947 89.307 36.6247C89.227 36.5547 89.1153 36.5197 88.972 36.5197H88.352V37.2947H88.982Z" fill="#041237"/>
</svg>
