<svg width="128" height="70" viewBox="0 0 128 70" fill="none" xmlns="http://www.w3.org/2000/svg">
<path d="M65.9837 51.3225C64.6452 56.5772 61.1824 61.3957 56.5452 64.811C51.8907 68.222 45.9496 70.1261 39.9221 69.9966C33.886 69.9059 27.8239 67.7427 22.9708 63.9863C20.5227 62.1254 18.407 59.837 16.6325 57.3069C14.8881 54.7551 13.5324 51.927 12.6386 48.9478C12.1852 47.4625 11.8916 45.9297 11.6887 44.3883C11.4815 42.8469 11.4124 41.2925 11.4512 39.7468C11.4944 38.1968 11.6844 36.6553 11.9694 35.1355C12.2543 33.6157 12.6602 32.1175 13.1956 30.6667C15.3199 24.868 19.2706 19.8379 24.2834 16.5004C26.779 14.8165 29.538 13.56 32.392 12.7569C35.2503 11.9668 38.2123 11.6386 41.1051 11.8113C41.4635 11.8329 41.8305 11.8502 42.1846 11.8891L43.2294 12.0143C43.9246 12.1093 44.6241 12.2215 45.3192 12.3554C46.7095 12.6274 48.0955 12.9944 49.4296 13.4996C50.7552 14.0263 52.0246 14.674 53.199 15.4296C54.382 16.1722 55.4312 17.0832 56.407 18.0202L56.4502 18.0547C56.7006 18.3656 56.9468 18.6851 57.1929 18.996L57.2188 19.0305C57.3051 19.1428 57.2878 19.3025 57.1756 19.3932C57.0763 19.4709 56.9381 19.4666 56.8474 19.3846L55.958 18.6074L55.9796 18.6247C53.8466 17.1307 51.4676 16.0081 48.9461 15.395C46.4332 14.7776 43.8037 14.6222 41.2088 14.7128C36.0275 14.8899 30.9327 16.7292 26.8049 19.8509C22.6729 22.9683 19.4994 27.3421 17.863 32.2427C16.2093 37.1389 16.1273 42.536 17.6039 47.4755C19.0417 52.4279 22.0382 56.9183 26.0537 60.1738C30.0519 63.4466 35.0604 65.4846 40.2243 65.8645C45.3883 66.279 50.6559 65.0269 55.1247 62.4017C59.6151 59.8068 63.3024 55.8216 65.513 51.098C65.5735 50.9685 65.7246 50.9124 65.8541 50.9728C65.9664 51.0246 66.0225 51.1498 65.9923 51.2707L65.9837 51.3225Z" fill="white"/>
<path d="M17.1675 19.8854C18.152 18.0547 19.5207 16.4442 21.088 15.0583C21.4852 14.7172 21.8781 14.3717 22.3013 14.0609C22.7287 13.7586 23.1475 13.4391 23.5836 13.1455C24.0283 12.8649 24.4774 12.5929 24.935 12.3381C25.4014 12.0963 25.859 11.8329 26.334 11.6084C26.8176 11.4055 27.2968 11.1853 27.789 10.9996C28.2856 10.8269 28.7692 10.6154 29.2743 10.4729C30.2847 10.1879 31.2993 9.91588 32.3399 9.7734C34.4081 9.45389 36.5194 9.42799 38.5574 9.83385L38.5703 9.83817C38.6049 9.84681 38.6264 9.87703 38.6221 9.91157C38.6178 9.94179 38.5919 9.96338 38.5617 9.96338C34.5246 10.08 30.5221 11.0428 26.891 12.7785C23.2382 14.4754 19.9395 16.9408 17.2755 19.9718C17.2539 19.9977 17.2107 20.002 17.1848 19.9761C17.1632 19.9545 17.1589 19.9243 17.1718 19.8984L17.1675 19.8854Z" fill="white"/>
<path d="M7.37045 31.2064C7.39204 29.2203 7.81517 27.2644 8.47578 25.3948C8.63985 24.9242 8.82551 24.4622 9.01981 24.0088L9.65019 22.6574C9.87471 22.2127 10.1381 21.7895 10.3799 21.3535L11.1743 20.0884L12.0638 18.8881C12.3747 18.4995 12.6855 18.1109 13.0137 17.7352L14.0413 16.6558C14.391 16.3018 14.7667 15.9736 15.1337 15.6455C16.6319 14.3458 18.2985 13.2362 20.1335 12.4849L20.1465 12.4806C20.181 12.4677 20.2156 12.4849 20.2285 12.5151C20.2415 12.5411 20.2285 12.5756 20.2069 12.5929C17.0896 14.8424 14.3781 17.6446 12.2365 20.8224C10.0561 23.9786 8.43692 27.5234 7.48703 31.2496C7.47839 31.2842 7.44385 31.3057 7.40931 31.2971C7.37909 31.2885 7.36182 31.2626 7.36182 31.2323L7.37045 31.2064Z" fill="white"/>
<path d="M29.3175 7.85637C31.1655 6.47471 33.32 5.62411 35.5436 5.10599C37.7716 4.5965 40.0858 4.46697 42.3699 4.67422C44.654 4.89442 46.9078 5.45141 49.0019 6.37108C51.0916 7.29507 53.0432 8.53856 54.6019 10.2311L54.6235 10.257C54.6624 10.3002 54.6581 10.3649 54.6192 10.4038C54.5847 10.434 54.5372 10.4383 54.4983 10.4211C53.5355 9.92885 52.5553 9.48413 51.5493 9.0869C50.5519 8.67672 49.533 8.32267 48.501 8.02043C46.4372 7.40732 44.3085 7.01441 42.167 6.82443C40.0254 6.6215 37.8622 6.60855 35.7163 6.82876C34.6456 6.93238 33.5791 7.09212 32.5213 7.30369C31.4634 7.50231 30.4142 7.76137 29.378 8.06361C29.3218 8.08088 29.2657 8.04635 29.2484 7.99022C29.2355 7.94704 29.2528 7.90386 29.2873 7.87795L29.3175 7.85637Z" fill="white"/>
<path d="M12.3532 14.3113C13.3852 12.0704 14.9482 10.1577 16.7357 8.48673C18.5405 6.83306 20.6086 5.45571 22.8323 4.41515C25.0559 3.37027 27.4349 2.65784 29.8615 2.32538C32.288 2.0145 34.7577 2.0361 37.1411 2.6708L37.1713 2.67943C37.2274 2.69238 37.262 2.75284 37.2447 2.80897C37.2318 2.85215 37.1972 2.88237 37.154 2.88669L35.4183 3.05076L33.6912 3.29686C33.117 3.39185 32.5471 3.50411 31.9771 3.60773C31.4072 3.72431 30.8459 3.87111 30.2803 4.00064C28.0308 4.57921 25.8417 5.37368 23.7476 6.37106C21.6449 7.34686 19.6328 8.52559 17.7547 9.88566C17.2883 10.2311 16.8307 10.5894 16.3687 10.9392L15.0345 12.0575L13.7435 13.2275L12.5087 14.4581C12.4655 14.5013 12.4007 14.5013 12.3575 14.4581C12.3273 14.4279 12.3187 14.3804 12.336 14.3415L12.3532 14.3113Z" fill="#00FF94"/>
<path d="M0.0391665 29.855C-0.137859 27.286 0.298228 24.7385 1.08405 22.3077C1.8526 19.8638 3.02269 17.5496 4.47343 15.4339C5.93281 13.3225 7.67716 11.4012 9.68057 9.81227C11.6667 8.20609 13.886 6.88487 16.3428 6.12063L16.3687 6.112C16.4248 6.09473 16.4853 6.12496 16.5025 6.18109C16.5155 6.22426 16.4982 6.27175 16.4637 6.29766L14.9956 7.39004L13.5794 8.54717L12.2064 9.75614L10.8895 11.0255C9.1754 12.7569 7.62103 14.6438 6.24801 16.6558C4.85771 18.6549 3.65307 20.7835 2.65137 23.0071L1.93895 24.691L1.30425 26.4051L0.734315 28.1452L0.246416 29.9068C0.229145 29.9629 0.173015 29.9975 0.116885 29.9802C0.073708 29.9672 0.0434842 29.9284 0.0391665 29.8852V29.855Z" fill="#0059FF"/>
<path d="M42.5642 3.8884C43.0865 3.8884 43.5098 3.46505 43.5098 2.94282C43.5098 2.42059 43.0865 1.99725 42.5642 1.99725C42.042 1.99725 41.6187 2.42059 41.6187 2.94282C41.6187 3.46505 42.042 3.8884 42.5642 3.8884Z" fill="white" stroke="white" stroke-width="3.6548" stroke-miterlimit="10" stroke-linecap="round"/>
<path d="M21.1004 4.20356C21.6226 4.20356 22.0459 3.78021 22.0459 3.25798C22.0459 2.73576 21.6226 2.31241 21.1004 2.31241C20.5781 2.31241 20.1548 2.73576 20.1548 3.25798C20.1548 3.78021 20.5781 4.20356 21.1004 4.20356Z" fill="#00FF94" stroke="#00FF94" stroke-width="3.6548" stroke-miterlimit="10" stroke-linecap="round"/>
<path d="M3.42848 14.933C3.95071 14.933 4.37406 14.5097 4.37406 13.9875C4.37406 13.4652 3.95071 13.0419 3.42848 13.0419C2.90626 13.0419 2.48291 13.4652 2.48291 13.9875C2.48291 14.5097 2.90626 14.933 3.42848 14.933Z" fill="#0059FF" stroke="#0059FF" stroke-width="3.6548" stroke-miterlimit="10" stroke-linecap="round"/>
<path d="M3.63556 46.327C2.71589 44.1293 2.21936 41.7632 2.0337 39.3755C1.99484 38.7797 1.95166 38.1795 1.95166 37.5793C1.96461 36.9792 1.9603 36.379 1.98188 35.7788C2.02506 35.1787 2.07687 34.5785 2.14596 33.9827C2.23231 33.3868 2.29708 32.7867 2.40502 32.1952C2.53887 31.608 2.65113 31.0164 2.79793 30.4335C2.962 29.855 3.09153 29.2678 3.28583 28.6978C3.48876 28.1322 3.67442 27.5623 3.89462 27.001C4.11914 26.444 4.34798 25.8913 4.61136 25.3516C5.63465 23.1841 6.94291 21.1548 8.58363 19.4278L8.59227 19.4191C8.61817 19.3932 8.65703 19.3932 8.68294 19.4148C8.70453 19.4364 8.70885 19.4709 8.69157 19.4968C6.2089 23.4389 4.49478 27.8516 3.67874 32.4326C2.81952 37.0008 2.84974 41.7373 3.76077 46.3054C3.76941 46.3399 3.7435 46.3745 3.70896 46.3831C3.67874 46.3874 3.64851 46.3745 3.63556 46.3442V46.327Z" fill="white"/>
<path d="M44.983 29.748V31.118H43.123V36.768H41.413V31.118H39.553V29.748H44.983ZM51.1012 33.888C51.1012 34.048 51.0912 34.2147 51.0712 34.388H47.2012C47.2279 34.7347 47.3379 35.0013 47.5312 35.188C47.7312 35.368 47.9745 35.458 48.2612 35.458C48.6879 35.458 48.9845 35.278 49.1512 34.918H50.9712C50.8779 35.2847 50.7079 35.6147 50.4612 35.908C50.2212 36.2013 49.9179 36.4313 49.5512 36.598C49.1845 36.7647 48.7745 36.848 48.3212 36.848C47.7745 36.848 47.2879 36.7313 46.8612 36.498C46.4345 36.2647 46.1012 35.9313 45.8612 35.498C45.6212 35.0647 45.5012 34.558 45.5012 33.978C45.5012 33.398 45.6179 32.8913 45.8512 32.458C46.0912 32.0247 46.4245 31.6913 46.8512 31.458C47.2779 31.2247 47.7679 31.108 48.3212 31.108C48.8612 31.108 49.3412 31.2213 49.7612 31.448C50.1812 31.6747 50.5079 31.998 50.7412 32.418C50.9812 32.838 51.1012 33.328 51.1012 33.888ZM49.3512 33.438C49.3512 33.1447 49.2512 32.9113 49.0512 32.738C48.8512 32.5647 48.6012 32.478 48.3012 32.478C48.0145 32.478 47.7712 32.5613 47.5712 32.728C47.3779 32.8947 47.2579 33.1313 47.2112 33.438H49.3512ZM51.6633 33.978C51.6633 33.398 51.78 32.8913 52.0133 32.458C52.2533 32.0247 52.5833 31.6913 53.0033 31.458C53.43 31.2247 53.9166 31.108 54.4633 31.108C55.1633 31.108 55.7466 31.2913 56.2133 31.658C56.6866 32.0247 56.9966 32.5413 57.1433 33.208H55.3233C55.17 32.7813 54.8733 32.568 54.4333 32.568C54.12 32.568 53.87 32.6913 53.6833 32.938C53.4966 33.178 53.4033 33.5247 53.4033 33.978C53.4033 34.4313 53.4966 34.7813 53.6833 35.028C53.87 35.268 54.12 35.388 54.4333 35.388C54.8733 35.388 55.17 35.1747 55.3233 34.748H57.1433C56.9966 35.4013 56.6866 35.9147 56.2133 36.288C55.74 36.6613 55.1566 36.848 54.4633 36.848C53.9166 36.848 53.43 36.7313 53.0033 36.498C52.5833 36.2647 52.2533 35.9313 52.0133 35.498C51.78 35.0647 51.6633 34.558 51.6633 33.978ZM61.488 31.128C62.128 31.128 62.6413 31.3413 63.028 31.768C63.4147 32.188 63.608 32.768 63.608 33.508V36.768H61.908V33.738C61.908 33.3647 61.8113 33.0747 61.618 32.868C61.4247 32.6613 61.1647 32.558 60.838 32.558C60.5113 32.558 60.2513 32.6613 60.058 32.868C59.8647 33.0747 59.768 33.3647 59.768 33.738V36.768H58.058V29.368H59.768V31.938C59.9413 31.6913 60.178 31.4947 60.478 31.348C60.778 31.2013 61.1147 31.128 61.488 31.128ZM71.3154 29.748V34.528C71.3154 35.268 71.1054 35.838 70.6854 36.238C70.2721 36.638 69.7121 36.838 69.0054 36.838C68.2654 36.838 67.6721 36.628 67.2254 36.208C66.7787 35.788 66.5554 35.1913 66.5554 34.418H68.2554C68.2554 34.7113 68.3154 34.9347 68.4354 35.088C68.5554 35.2347 68.7287 35.308 68.9554 35.308C69.1621 35.308 69.3221 35.2413 69.4354 35.108C69.5487 34.9747 69.6054 34.7813 69.6054 34.528V29.748H71.3154ZM75.2367 36.848C74.69 36.848 74.1967 36.7313 73.7567 36.498C73.3233 36.2647 72.98 35.9313 72.7267 35.498C72.48 35.0647 72.3567 34.558 72.3567 33.978C72.3567 33.4047 72.4833 32.9013 72.7367 32.468C72.99 32.028 73.3367 31.6913 73.7767 31.458C74.2167 31.2247 74.71 31.108 75.2567 31.108C75.8033 31.108 76.2967 31.2247 76.7367 31.458C77.1767 31.6913 77.5233 32.028 77.7767 32.468C78.03 32.9013 78.1567 33.4047 78.1567 33.978C78.1567 34.5513 78.0267 35.058 77.7667 35.498C77.5133 35.9313 77.1633 36.2647 76.7167 36.498C76.2767 36.7313 75.7833 36.848 75.2367 36.848ZM75.2367 35.368C75.5633 35.368 75.84 35.248 76.0667 35.008C76.3 34.768 76.4167 34.4247 76.4167 33.978C76.4167 33.5313 76.3033 33.188 76.0767 32.948C75.8567 32.708 75.5833 32.588 75.2567 32.588C74.9233 32.588 74.6467 32.708 74.4267 32.948C74.2067 33.1813 74.0967 33.5247 74.0967 33.978C74.0967 34.4247 74.2033 34.768 74.4167 35.008C74.6367 35.248 74.91 35.368 75.2367 35.368ZM80.7738 31.978C80.9338 31.718 81.1638 31.508 81.4638 31.348C81.7638 31.188 82.1072 31.108 82.4938 31.108C82.9538 31.108 83.3705 31.2247 83.7438 31.458C84.1172 31.6913 84.4105 32.0247 84.6238 32.458C84.8438 32.8913 84.9538 33.3947 84.9538 33.968C84.9538 34.5413 84.8438 35.048 84.6238 35.488C84.4105 35.9213 84.1172 36.258 83.7438 36.498C83.3705 36.7313 82.9538 36.848 82.4938 36.848C82.1005 36.848 81.7572 36.7713 81.4638 36.618C81.1705 36.458 80.9405 36.248 80.7738 35.988V36.768H79.0638V29.368H80.7738V31.978ZM83.2138 33.968C83.2138 33.5413 83.0938 33.208 82.8538 32.968C82.6205 32.7213 82.3305 32.598 81.9838 32.598C81.6438 32.598 81.3538 32.7213 81.1138 32.968C80.8805 33.2147 80.7638 33.5513 80.7638 33.978C80.7638 34.4047 80.8805 34.7413 81.1138 34.988C81.3538 35.2347 81.6438 35.358 81.9838 35.358C82.3238 35.358 82.6138 35.2347 82.8538 34.988C83.0938 34.7347 83.2138 34.3947 83.2138 33.968ZM92.5401 29.748V31.118H89.6801V32.598H91.8201V33.928H89.6801V36.768H87.9701V29.748H92.5401ZM93.0988 33.968C93.0988 33.3947 93.2055 32.8913 93.4188 32.458C93.6388 32.0247 93.9355 31.6913 94.3088 31.458C94.6822 31.2247 95.0988 31.108 95.5588 31.108C95.9522 31.108 96.2955 31.188 96.5888 31.348C96.8888 31.508 97.1188 31.718 97.2788 31.978V31.188H98.9888V36.768H97.2788V35.978C97.1122 36.238 96.8788 36.448 96.5788 36.608C96.2855 36.768 95.9422 36.848 95.5488 36.848C95.0955 36.848 94.6822 36.7313 94.3088 36.498C93.9355 36.258 93.6388 35.9213 93.4188 35.488C93.2055 35.048 93.0988 34.5413 93.0988 33.968ZM97.2788 33.978C97.2788 33.5513 97.1588 33.2147 96.9188 32.968C96.6855 32.7213 96.3988 32.598 96.0588 32.598C95.7188 32.598 95.4288 32.7213 95.1888 32.968C94.9555 33.208 94.8388 33.5413 94.8388 33.968C94.8388 34.3947 94.9555 34.7347 95.1888 34.988C95.4288 35.2347 95.7188 35.358 96.0588 35.358C96.3988 35.358 96.6855 35.2347 96.9188 34.988C97.1588 34.7413 97.2788 34.4047 97.2788 33.978ZM101.086 30.608C100.786 30.608 100.539 30.5213 100.346 30.348C100.159 30.168 100.066 29.948 100.066 29.688C100.066 29.4213 100.159 29.2013 100.346 29.028C100.539 28.848 100.786 28.758 101.086 28.758C101.379 28.758 101.619 28.848 101.806 29.028C101.999 29.2013 102.096 29.4213 102.096 29.688C102.096 29.948 101.999 30.168 101.806 30.348C101.619 30.5213 101.379 30.608 101.086 30.608ZM101.936 31.188V36.768H100.226V31.188H101.936ZM104.885 32.118C105.085 31.8113 105.335 31.5713 105.635 31.398C105.935 31.218 106.269 31.128 106.635 31.128V32.938H106.165C105.739 32.938 105.419 33.0313 105.205 33.218C104.992 33.398 104.885 33.718 104.885 34.178V36.768H103.175V31.188H104.885V32.118Z" fill="white"/>
<path d="M42.298 43.1019C42.298 43.3053 42.2513 43.4919 42.158 43.6619C42.0647 43.8286 41.9213 43.9636 41.728 44.0669C41.5347 44.1703 41.2947 44.2219 41.008 44.2219H40.478V45.4819H39.623V41.9719H41.008C41.288 41.9719 41.5247 42.0203 41.718 42.1169C41.9113 42.2136 42.0563 42.3469 42.153 42.5169C42.2497 42.6869 42.298 42.8819 42.298 43.1019ZM40.943 43.5419C41.1063 43.5419 41.228 43.5036 41.308 43.4269C41.388 43.3503 41.428 43.2419 41.428 43.1019C41.428 42.9619 41.388 42.8536 41.308 42.7769C41.228 42.7003 41.1063 42.6619 40.943 42.6619H40.478V43.5419H40.943ZM44.4031 45.5169C44.0731 45.5169 43.7698 45.4403 43.4931 45.2869C43.2198 45.1336 43.0014 44.9203 42.8381 44.6469C42.6781 44.3703 42.5981 44.0603 42.5981 43.7169C42.5981 43.3736 42.6781 43.0653 42.8381 42.7919C43.0014 42.5186 43.2198 42.3053 43.4931 42.1519C43.7698 41.9986 44.0731 41.9219 44.4031 41.9219C44.7331 41.9219 45.0348 41.9986 45.3081 42.1519C45.5848 42.3053 45.8014 42.5186 45.9581 42.7919C46.1181 43.0653 46.1981 43.3736 46.1981 43.7169C46.1981 44.0603 46.1181 44.3703 45.9581 44.6469C45.7981 44.9203 45.5814 45.1336 45.3081 45.2869C45.0348 45.4403 44.7331 45.5169 44.4031 45.5169ZM44.4031 44.7369C44.6831 44.7369 44.9064 44.6436 45.0731 44.4569C45.2431 44.2703 45.3281 44.0236 45.3281 43.7169C45.3281 43.4069 45.2431 43.1603 45.0731 42.9769C44.9064 42.7903 44.6831 42.6969 44.4031 42.6969C44.1198 42.6969 43.8931 42.7886 43.7231 42.9719C43.5564 43.1553 43.4731 43.4036 43.4731 43.7169C43.4731 44.0269 43.5564 44.2753 43.7231 44.4619C43.8931 44.6453 44.1198 44.7369 44.4031 44.7369ZM51.5038 41.9719L50.5888 45.4819H49.5538L48.9938 43.1719L48.4138 45.4819H47.3788L46.4888 41.9719H47.4038L47.9088 44.5269L48.5338 41.9719H49.4738L50.0738 44.5269L50.5838 41.9719H51.5038ZM52.7876 42.6569V43.3669H53.9326V44.0269H52.7876V44.7969H54.0826V45.4819H51.9326V41.9719H54.0826V42.6569H52.7876ZM56.4276 45.4819L55.6976 44.1569H55.4926V45.4819H54.6376V41.9719H56.0726C56.3493 41.9719 56.5843 42.0203 56.7776 42.1169C56.9743 42.2136 57.121 42.3469 57.2176 42.5169C57.3143 42.6836 57.3626 42.8703 57.3626 43.0769C57.3626 43.3103 57.296 43.5186 57.1626 43.7019C57.0326 43.8853 56.8393 44.0153 56.5826 44.0919L57.3926 45.4819H56.4276ZM55.4926 43.5519H56.0226C56.1793 43.5519 56.296 43.5136 56.3726 43.4369C56.4526 43.3603 56.4926 43.2519 56.4926 43.1119C56.4926 42.9786 56.4526 42.8736 56.3726 42.7969C56.296 42.7203 56.1793 42.6819 56.0226 42.6819H55.4926V43.5519ZM58.7544 42.6569V43.3669H59.8994V44.0269H58.7544V44.7969H60.0494V45.4819H57.8994V41.9719H60.0494V42.6569H58.7544ZM61.9194 41.9719C62.2894 41.9719 62.6128 42.0453 62.8894 42.1919C63.1661 42.3386 63.3794 42.5453 63.5294 42.8119C63.6828 43.0753 63.7594 43.3803 63.7594 43.7269C63.7594 44.0703 63.6828 44.3753 63.5294 44.6419C63.3794 44.9086 63.1644 45.1153 62.8844 45.2619C62.6078 45.4086 62.2861 45.4819 61.9194 45.4819H60.6044V41.9719H61.9194ZM61.8644 44.7419C62.1878 44.7419 62.4394 44.6536 62.6194 44.4769C62.7994 44.3003 62.8894 44.0503 62.8894 43.7269C62.8894 43.4036 62.7994 43.1519 62.6194 42.9719C62.4394 42.7919 62.1878 42.7019 61.8644 42.7019H61.4594V44.7419H61.8644ZM67.4218 43.6819C67.6251 43.7253 67.7885 43.8269 67.9118 43.9869C68.0351 44.1436 68.0968 44.3236 68.0968 44.5269C68.0968 44.8203 67.9935 45.0536 67.7868 45.2269C67.5835 45.3969 67.2985 45.4819 66.9318 45.4819H65.2968V41.9719H66.8768C67.2335 41.9719 67.5118 42.0536 67.7118 42.2169C67.9151 42.3803 68.0168 42.6019 68.0168 42.8819C68.0168 43.0886 67.9618 43.2603 67.8518 43.3969C67.7451 43.5336 67.6018 43.6286 67.4218 43.6819ZM66.1518 43.3919H66.7118C66.8518 43.3919 66.9585 43.3619 67.0318 43.3019C67.1085 43.2386 67.1468 43.1469 67.1468 43.0269C67.1468 42.9069 67.1085 42.8153 67.0318 42.7519C66.9585 42.6886 66.8518 42.6569 66.7118 42.6569H66.1518V43.3919ZM66.7818 44.7919C66.9251 44.7919 67.0351 44.7603 67.1118 44.6969C67.1918 44.6303 67.2318 44.5353 67.2318 44.4119C67.2318 44.2886 67.1901 44.1919 67.1068 44.1219C67.0268 44.0519 66.9151 44.0169 66.7718 44.0169H66.1518V44.7919H66.7818ZM71.6027 41.9719L70.3877 44.3219V45.4819H69.5327V44.3219L68.3177 41.9719H69.2877L69.9677 43.4419L70.6427 41.9719H71.6027ZM72.8618 43.7219C72.8618 43.3753 72.9368 43.0669 73.0868 42.7969C73.2368 42.5236 73.4451 42.3119 73.7118 42.1619C73.9818 42.0086 74.2868 41.9319 74.6268 41.9319C75.0434 41.9319 75.4001 42.0419 75.6968 42.2619C75.9934 42.4819 76.1918 42.7819 76.2918 43.1619H75.3518C75.2818 43.0153 75.1818 42.9036 75.0518 42.8269C74.9251 42.7503 74.7801 42.7119 74.6168 42.7119C74.3534 42.7119 74.1401 42.8036 73.9768 42.9869C73.8134 43.1703 73.7318 43.4153 73.7318 43.7219C73.7318 44.0286 73.8134 44.2736 73.9768 44.4569C74.1401 44.6403 74.3534 44.7319 74.6168 44.7319C74.7801 44.7319 74.9251 44.6936 75.0518 44.6169C75.1818 44.5403 75.2818 44.4286 75.3518 44.2819H76.2918C76.1918 44.6619 75.9934 44.9619 75.6968 45.1819C75.4001 45.3986 75.0434 45.5069 74.6268 45.5069C74.2868 45.5069 73.9818 45.4319 73.7118 45.2819C73.4451 45.1286 73.2368 44.9169 73.0868 44.6469C72.9368 44.3769 72.8618 44.0686 72.8618 43.7219ZM78.6054 45.4819L77.8754 44.1569H77.6704V45.4819H76.8154V41.9719H78.2504C78.527 41.9719 78.762 42.0203 78.9554 42.1169C79.152 42.2136 79.2987 42.3469 79.3954 42.5169C79.492 42.6836 79.5404 42.8703 79.5404 43.0769C79.5404 43.3103 79.4737 43.5186 79.3404 43.7019C79.2104 43.8853 79.017 44.0153 78.7604 44.0919L79.5704 45.4819H78.6054ZM77.6704 43.5519H78.2004C78.357 43.5519 78.4737 43.5136 78.5504 43.4369C78.6304 43.3603 78.6704 43.2519 78.6704 43.1119C78.6704 42.9786 78.6304 42.8736 78.5504 42.7969C78.4737 42.7203 78.357 42.6819 78.2004 42.6819H77.6704V43.5519ZM80.9321 42.6569V43.3669H82.0771V44.0269H80.9321V44.7969H82.2271V45.4819H80.0771V41.9719H82.2271V42.6569H80.9321ZM84.9672 44.8619H83.6572L83.4472 45.4819H82.5522L83.8222 41.9719H84.8122L86.0822 45.4819H85.1772L84.9672 44.8619ZM84.7472 44.2019L84.3122 42.9169L83.8822 44.2019H84.7472ZM88.9937 41.9719V42.6569H88.0637V45.4819H87.2087V42.6569H86.2787V41.9719H88.9937ZM90.2778 41.9719V45.4819H89.4228V41.9719H90.2778ZM94.1924 41.9719L92.9474 45.4819H91.8774L90.6324 41.9719H91.5424L92.4124 44.6219L93.2874 41.9719H94.1924ZM95.4047 42.6569V43.3669H96.5497V44.0269H95.4047V44.7969H96.6997V45.4819H94.5497V41.9719H96.6997V42.6569H95.4047ZM101.354 41.9719V45.4819H100.499V44.0369H99.1694V45.4819H98.3144V41.9719H99.1694V43.3469H100.499V41.9719H101.354ZM102.812 41.9719V44.0719C102.812 44.2819 102.863 44.4436 102.967 44.5569C103.07 44.6703 103.222 44.7269 103.422 44.7269C103.622 44.7269 103.775 44.6703 103.882 44.5569C103.988 44.4436 104.042 44.2819 104.042 44.0719V41.9719H104.897V44.0669C104.897 44.3803 104.83 44.6453 104.697 44.8619C104.563 45.0786 104.383 45.2419 104.157 45.3519C103.933 45.4619 103.683 45.5169 103.407 45.5169C103.13 45.5169 102.882 45.4636 102.662 45.3569C102.445 45.2469 102.273 45.0836 102.147 44.8669C102.02 44.6469 101.957 44.3803 101.957 44.0669V41.9719H102.812ZM107.622 43.6819C107.825 43.7253 107.989 43.8269 108.112 43.9869C108.235 44.1436 108.297 44.3236 108.297 44.5269C108.297 44.8203 108.194 45.0536 107.987 45.2269C107.784 45.3969 107.499 45.4819 107.132 45.4819H105.497V41.9719H107.077C107.434 41.9719 107.712 42.0536 107.912 42.2169C108.115 42.3803 108.217 42.6019 108.217 42.8819C108.217 43.0886 108.162 43.2603 108.052 43.3969C107.945 43.5336 107.802 43.6286 107.622 43.6819ZM106.352 43.3919H106.912C107.052 43.3919 107.159 43.3619 107.232 43.3019C107.309 43.2386 107.347 43.1469 107.347 43.0269C107.347 42.9069 107.309 42.8153 107.232 42.7519C107.159 42.6886 107.052 42.6569 106.912 42.6569H106.352V43.3919ZM106.982 44.7919C107.125 44.7919 107.235 44.7603 107.312 44.6969C107.392 44.6303 107.432 44.5353 107.432 44.4119C107.432 44.2886 107.39 44.1919 107.307 44.1219C107.227 44.0519 107.115 44.0169 106.972 44.0169H106.352V44.7919H106.982Z" fill="white"/>
</svg>
